PERFORMER "Mari Boine Persen"
TITLE "eallin - Live"
FILE "Eallin.flac" FLAC
  TRACK 01 AUDIO
    TITLE "Mielahisvuohta / a state of mind where your intellect is disconnected"
    PERFORMER "Mari Boine Persen"
    INDEX 01 00:00:00
  TRACK 02 AUDIO
    TITLE "Dás Áiggun cuozzut I orbina / within myself I the orphant"
    PERFORMER "Mari Boine Persen"
    INDEX 01 06:16:55
  TRACK 03 AUDIO
    TITLE "Gula Gula / hear the voices of the foremothers"
    PERFORMER "Mari Boine Persen"
    INDEX 01 14:22:37
  TRACK 04 AUDIO
    TITLE "Modjás Katrin / katrin who smiles"
    PERFORMER "Mari Boine Persen"
    INDEX 01 20:45:62
  TRACK 05 AUDIO
    TITLE "Eco / echo"
    PERFORMER "Mari Boine Persen"
    INDEX 01 31:38:15
  TRACK 06 AUDIO
    TITLE "Skádja / the reverberation"
    PERFORMER "Mari Boine Persen"
    INDEX 01 33:57:40
  TRACK 07 AUDIO
    TITLE "Vuolgge mu mielde bassivárrái / come with me to the sacred mountain"
    PERFORMER "Mari Boine Persen"
    INDEX 01 42:30:72
  TRACK 08 AUDIO
    TITLE "It sat duol mima mu / free at last"
    PERFORMER "Mari Boine Persen"
    INDEX 01 53:24:20
  TRACK 09 AUDIO
    TITLE "Duinne l Dutnje / to you"
    PERFORMER "Mari Boine Persen"
    INDEX 01 62:44:45
